<svg id="Layer_1" data-name="Layer 1" xmlns="http://www.w3.org/2000/svg" viewBox="0 0 11.10999 11.71455"><defs><style>.cls-1{fill:#15397f;}.cls-2{fill:#fff;}.cls-3{fill:#e3173e;}</style></defs><title>safari-pinned-tab</title><g id="NSW_Government" data-name="NSW Government"><path class="cls-1" d="M5.51871,11.23737,3.79472,9.2126H3.06427v3.16869h.71161V10.36142L5.495,12.38129h.735V9.2126H5.51871Zm6.83-2.024-.47227,2.02779L11.38119,9.2126h-.68145l-.50394,2.00592L9.73823,9.213H8.99346l.8243,3.16605h.7331l.48357-2.004.49,2.004h.7199l.00716-.02714.8292-3.1408Z" transform="translate(-2.52253 -2.14272)"/><path class="cls-1" d="M2.98851,13.35184h0a.49941.49941,0,0,1,.49025-.5084q.00721-.00014.01443,0a.52993.52993,0,0,1,.37691.13154l-.1093.13041a.38443.38443,0,0,0-.27477-.10516.33189.33189,0,0,0-.31811.346v.00566a.32751.32751,0,0,0,.33356.35015.39871.39871,0,0,0,.2367-.07538v-.18356H3.48867v-.15076h.41912v.412a.62567.62567,0,0,1-.40932.153A.48655.48655,0,0,1,2.99,13.353" transform="translate(-2.52253 -2.14272)"/><path class="cls-1" d="M4.01031,13.35184h0a.513.513,0,0,1,1.02558-.003v.003a.513.513,0,0,1-1.02558.00264m.845,0v-.00264a.33608.33608,0,0,0-.33357-.349.33107.33107,0,0,0-.33055.346v.003a.33568.33568,0,0,0,.33319.34864.33182.33182,0,0,0,.33093-.346" transform="translate(-2.52253 -2.14272)"/><polygon class="cls-1" points="2.501 10.717 2.692 10.717 2.987 11.471 3.282 10.717 3.468 10.717 3.06 11.705 2.909 11.705 2.501 10.717"/><polygon class="cls-1" points="3.584 10.717 4.311 10.717 4.311 10.871 3.756 10.871 3.756 11.127 4.248 11.127 4.248 11.28 3.756 11.28 3.756 11.544 4.318 11.544 4.318 11.698 3.584 11.698 3.584 10.717"/><path class="cls-1" d="M7.00789,12.86185h.43684a.39577.39577,0,0,1,.28306.098.29548.29548,0,0,1,.081.21145v.003a.29424.29424,0,0,1-.23368.297l.26384.37126H7.63582L7.395,13.50072h-.2156v.3411H7.00713Zm.4244.48622c.12325,0,.20165-.06445.20165-.164v-.00264c0-.10515-.07538-.16244-.20316-.16244H7.18014v.32942Z" transform="translate(-2.52253 -2.14272)"/><polygon class="cls-1" points="5.439 10.717 5.598 10.717 6.124 11.395 6.124 10.717 6.293 10.717 6.293 11.698 6.149 11.698 5.608 11 5.608 11.698 5.439 11.698 5.439 10.717"/><polygon class="cls-1" points="6.468 10.717 6.652 10.717 6.95 11.181 7.248 10.717 7.432 10.717 7.432 11.698 7.26 11.698 7.26 10.995 6.95 11.457 6.944 11.457 6.638 10.997 6.638 11.698 6.468 11.698 6.468 10.717"/><polygon class="cls-1" points="7.596 10.717 8.323 10.717 8.323 10.871 7.769 10.871 7.769 11.127 8.26 11.127 8.26 11.28 7.769 11.28 7.769 11.544 8.331 11.544 8.331 11.698 7.596 11.698 7.596 10.717"/><polygon class="cls-1" points="8.5 10.717 8.66 10.717 9.185 11.395 9.185 10.717 9.355 10.717 9.355 11.698 9.211 11.698 8.67 11 8.67 11.698 8.5 11.698 8.5 10.717"/><polygon class="cls-1" points="9.802 10.877 9.491 10.877 9.491 10.717 10.287 10.717 10.287 10.877 9.976 10.877 9.976 11.698 9.802 11.698 9.802 10.877"/><path class="cls-1" d="M6.42556,11.94031l.41837-.5013a1.47786,1.47786,0,0,0,.96113.39086c.28984,0,.46473-.115.46473-.30341V11.517c0-.17941-.11044-.27137-.64867-.40932-.64828-.16546-1.06665-.34487-1.06665-.98411v-.00905a1.00711,1.00711,0,0,1,1.127-.97017A1.86493,1.86493,0,0,1,8.877,9.55371l-.36786.53332a1.50954,1.50954,0,0,0-.8375-.31736c-.27213,0-.4146.124-.4146.28043v.009c0,.21145.13757.28042.69427.4229.65319.17,1.02105.4048,1.02105.96564v.00905c0,.64075-.48735.99806-1.182.99806A2.04892,2.04892,0,0,1,6.42556,11.94031Z" transform="translate(-2.52253 -2.14272)"/></g><g id="Waratah"><path class="cls-2" d="M13.6321,6.99862a.41737.41737,0,0,0-.17978-.29813,8.38336,8.38336,0,0,0-.92758-.59892c.04334-.05653.06219-.08669.10327-.14473a2.8799,2.8799,0,0,0,.47868-.92569.79455.79455,0,0,0,.02827-.36636.35844.35844,0,0,0-.24726-.21635A6.45642,6.45642,0,0,0,11.711,4.44279a5.12087,5.12087,0,0,0-.09988-1.1134c-.02375-.09686-.06521-.24537-.1715-.28947a.73241.73241,0,0,0-.5533.10328c-.22351.10289-.389.18506-.62794.30869-.10968-.38784-.22614-.75382-.26384-.84541-.02939-.06747-.07274-.18846-.2024-.21522a.33147.33147,0,0,0-.26986.06747c-.11308.0701-.611.42176-.77607.55858-.11307-.18544-.18016-.31661-.28682-.48509a2.20561,2.20561,0,0,0-.22615-.31811.20542.20542,0,0,0-.31133,0,2.42278,2.42278,0,0,0-.22615.31811c-.10629.16848-.17488.29927-.28683.48509-.16508-.13682-.66185-.49-.77606-.55858A.33442.33442,0,0,0,6.363,2.39126c-.13192.02525-.173.14775-.20241.21522-.04033.09234-.156.45757-.26383.84541-.239-.12363-.40518-.20617-.62869-.30907a.73043.73043,0,0,0-.55255-.1029c-.10629.0441-.14775.19261-.1715.28947a5.12025,5.12025,0,0,0-.09988,1.1134,6.45618,6.45618,0,0,0-1.17672.00565.35844.35844,0,0,0-.24725.21635.78539.78539,0,0,0,.02827.36636,2.86456,2.86456,0,0,0,.47867.92569c.04146.05842.05993.0882.10328.14473a8.4036,8.4036,0,0,0-.92758.59892.41429.41429,0,0,0-.17979.29813.29286.29286,0,0,0,.06483.20127,3.23293,3.23293,0,0,0,2.044.9306.374.374,0,0,0-.15076.45907.46277.46277,0,0,0,.22237.21371,1.51969,1.51969,0,0,0,.69164.14625,4.532,4.532,0,0,0,.9615-.12363,6.22569,6.22569,0,0,1,.90835-.19637,4.27,4.27,0,0,1,.53069.00942c.06219.0049.14248.0147.28344.0147.12514,0,.21823-.01018.27967-.01508a4.272,4.272,0,0,1,.53069-.00942,6.24872,6.24872,0,0,1,.90836.19637,4.53133,4.53133,0,0,0,.9615.12363,1.51979,1.51979,0,0,0,.69163-.14624.46445.46445,0,0,0,.22238-.21371.37088.37088,0,0,0-.15077-.45908,3.2275,3.2275,0,0,0,2.044-.93059A.29279.29279,0,0,0,13.6321,6.99862Z" transform="translate(-2.52253 -2.14272)"/><path class="cls-3" d="M10.12419,4.12844a8.44043,8.44043,0,0,1,.17,1.62072,4.87154,4.87154,0,0,1-.20089,1.46807,1.80913,1.80913,0,0,1-.6302.894,1.773,1.773,0,0,0,1.44922-1.00673,5.66742,5.66742,0,0,0,.58949-2.62895,3.65044,3.65044,0,0,0-.07312-1.1541c-.02525-.08368-.05993-.118-.13455-.11647a4.20073,4.20073,0,0,0-1.33766.689A.32779.32779,0,0,1,10.12419,4.12844Z" transform="translate(-2.52253 -2.14272)"/><path class="cls-3" d="M8.55775,8.22585A1.53233,1.53233,0,0,0,9.87694,7.14449a4.864,4.864,0,0,0,.18845-1.398,6.95967,6.95967,0,0,0-.13606-1.50425c-.01169-.055-.032-.14059-.101-.15453s-.12815.058-.16811.092A6.06276,6.06276,0,0,0,8.18234,6.17206a2.59163,2.59163,0,0,0-.22426,1.14769,1.18014,1.18014,0,0,0,.14775.68522A.53.53,0,0,0,8.55775,8.22585Z" transform="translate(-2.52253 -2.14272)"/><path class="cls-3" d="M10.068,3.54687c-.11307-.51712-.21974-.86954-.22087-.87142-.02374-.06294-.05729-.11119-.10666-.11948a.1693.1693,0,0,0-.14436.04561c-.07086.05163-.56876.44513-.73159.57969A7.42665,7.42665,0,0,1,9.275,4.182,9.2102,9.2102,0,0,1,10.068,3.54687Z" transform="translate(-2.52253 -2.14272)"/><path class="cls-3" d="M12.95027,4.84118a.27365.27365,0,0,0-.02374-.15868c-.032-.04673-.07275-.0686-.17376-.08141a9.98,9.98,0,0,0-1.04254.0539,7.39025,7.39025,0,0,1-.08932,1.00786c.2431.09272.47076.18845.724.31284A2.51749,2.51749,0,0,0,12.95027,4.84118Z" transform="translate(-2.52253 -2.14272)"/><path class="cls-3" d="M13.40784,7.002c-.00377-.08216-.04146-.15076-.17564-.23971a8.2888,8.2888,0,0,0-1.65238-.8669,4.38486,4.38486,0,0,1-.47038,1.32334,2.37719,2.37719,0,0,1-.819.87519A6.68422,6.68422,0,0,0,12.6559,7.596C13.32417,7.27188,13.41274,7.10943,13.40784,7.002Z" transform="translate(-2.52253 -2.14272)"/><path class="cls-3" d="M11.27264,8.24808a4.02882,4.02882,0,0,0-.55217.07539,2.84892,2.84892,0,0,1-.5812.04183c-.11647-.003-.37691-.00565-.37691-.00565-.12175-.00264-.26007-.006-.3984-.006h0a3.80264,3.80264,0,0,0-.98751.1029c-.01733.00527-.03769.01093-.0358.0309s.02751.01621.05276.01659.2661-.01659.38445-.01659a3.7758,3.7758,0,0,1,1.00334.14549,3.25028,3.25028,0,0,0,.8669.13079,1.2341,1.2341,0,0,0,.80583-.17866.22954.22954,0,0,0,.0588-.20089C11.48371,8.28917,11.41737,8.24469,11.27264,8.24808Z" transform="translate(-2.52253 -2.14272)"/><path class="cls-3" d="M5.23829,7.1034A1.77456,1.77456,0,0,0,6.68751,8.11013a1.80912,1.80912,0,0,1-.63132-.89441,4.87121,4.87121,0,0,1-.2009-1.46807,8.43953,8.43953,0,0,1,.17-1.62071.3319.3319,0,0,1,.16735-.23557,3.84988,3.84988,0,0,0-1.33615-.68749c-.07538,0-.1093.032-.13456.11647a3.66179,3.66179,0,0,0-.07312,1.1541A5.66086,5.66086,0,0,0,5.23829,7.1034Z" transform="translate(-2.52253 -2.14272)"/><path class="cls-3" d="M6.49039,4.18159c-.04033-.03392-.104-.10478-.1681-.092s-.08933.09913-.101.15453a6.95914,6.95914,0,0,0-.13607,1.50426,4.86582,4.86582,0,0,0,.18846,1.398A1.5205,1.5205,0,0,0,7.60152,8.22321a.66838.66838,0,0,0,.22954-.04109.52773.52773,0,0,0,.10215-.0554.84068.84068,0,0,1-.08142-.1372,1.43439,1.43439,0,0,1-.12249-.61776,3.14841,3.14841,0,0,1,.2431-1.22647A5.772,5.772,0,0,0,6.49039,4.18159Z" transform="translate(-2.52253 -2.14272)"/><path class="cls-3" d="M8.0753,5.82077A5.40743,5.40743,0,0,1,9.10879,4.40924a8.90509,8.90509,0,0,0-.95057-2.0308c-.026-.03769-.04673-.06181-.084-.06181s-.05578.0245-.08179.06181a8.8971,8.8971,0,0,0-.95057,2.0308A5.382,5.382,0,0,1,8.0753,5.82077Z" transform="translate(-2.52253 -2.14272)"/><path class="cls-3" d="M7.28605,3.18127c-.16283-.13494-.66073-.52768-.73159-.57969A.17044.17044,0,0,0,6.41011,2.556c-.049.00829-.08255.05616-.10667.11948,0,.00226-.10817.3543-.22087.87142a9.05554,9.05554,0,0,1,.79152.63547A7.7071,7.7071,0,0,1,7.28605,3.18127Z" transform="translate(-2.52253 -2.14272)"/><path class="cls-3" d="M3.80527,5.97569c.25329-.12439.47944-.22012.72405-.31284A7.39185,7.39185,0,0,1,4.44,4.655a9.97975,9.97975,0,0,0-1.04253-.0539c-.101.01244-.14172.03468-.17376.08141A.27373.27373,0,0,0,3.2,4.84118,2.54972,2.54972,0,0,0,3.80527,5.97569Z" transform="translate(-2.52253 -2.14272)"/><path class="cls-3" d="M5.04117,7.21723A4.39875,4.39875,0,0,1,4.57078,5.8939a8.289,8.289,0,0,0-1.65238.86689c-.13418.08971-.17225.15717-.17564.23972-.0049.10742.08368.26987.75382.59213a6.68241,6.68241,0,0,0,2.3655.4979A2.34859,2.34859,0,0,1,5.04117,7.21723Z" transform="translate(-2.52253 -2.14272)"/><path class="cls-3" d="M7.7749,8.45652a3.80416,3.80416,0,0,0-.9875-.1029h0c-.13833,0-.27628.003-.3984.006,0,0-.26082.00264-.37691.00565a2.84892,2.84892,0,0,1-.5812-.04183,4.02882,4.02882,0,0,0-.55217-.07539c-.14474-.00339-.2122.04109-.239.13531a.22954.22954,0,0,0,.05879.2009,1.23416,1.23416,0,0,0,.80584.17865,3.24516,3.24516,0,0,0,.8669-.13078,3.71491,3.71491,0,0,1,1.00333-.14549c.11835,0,.35882.017.38445.01658s.05089,0,.05277-.01658S7.79224,8.46179,7.7749,8.45652Z" transform="translate(-2.52253 -2.14272)"/></g></svg>